<?xml version="1.0" standalone="no"?>
<!DOCTYPE svg PUBLIC "-//W3C//DTD SVG 20010904//EN"
 "http://www.w3.org/TR/2001/REC-SVG-20010904/DTD/svg10.dtd">
<svg version="1.0" xmlns="http://www.w3.org/2000/svg"
 width="1164.000000pt" height="1180.000000pt" viewBox="0 0 1264.000000 1280.000000"
 preserveAspectRatio="xMidYMid meet">

<g transform="translate(0.000000,1280.000000) scale(0.100000,-0.100000)"
fill="#000000" stroke="none">
<path d="M6755 12793 c-634 -30 -1159 -102 -1720 -238 -869 -209 -1764 -586
-2395 -1008 -428 -287 -787 -573 -1066 -851 -155 -155 -374 -401 -374 -419 0
-8 303 195 590 393 248 171 398 267 590 377 157 90 479 257 486 251 2 -2 -54
-45 -124 -95 -557 -397 -1079 -928 -1512 -1538 -270 -381 -466 -769 -581
-1151 -22 -74 -39 -148 -37 -165 3 -30 7 -27 119 102 277 319 703 750 934 943
159 133 348 268 520 373 158 97 285 167 285 158 0 -21 -73 -99 -340 -365 -376
-374 -564 -587 -823 -935 -284 -381 -584 -875 -702 -1155 -73 -172 -132 -384
-159 -571 -31 -212 -20 -217 115 -56 277 332 560 622 807 827 187 156 230 180
320 180 34 0 62 -3 62 -6 0 -3 -82 -121 -183 -262 -421 -589 -663 -967 -939
-1462 -207 -371 -445 -896 -512 -1130 -41 -143 -69 -538 -49 -690 l9 -65 71
141 c130 257 355 554 701 927 341 368 679 643 1018 830 112 62 144 76 144 61
0 -3 -143 -186 -317 -407 -175 -221 -362 -465 -416 -542 -383 -544 -773 -1271
-942 -1755 -192 -552 -313 -1008 -332 -1249 -6 -77 -5 -79 21 -96 26 -18 27
-17 56 10 15 15 63 84 106 154 228 370 518 786 633 906 42 44 100 106 129 139
29 32 54 57 56 55 2 -2 -25 -65 -60 -139 -92 -196 -87 -202 55 -72 247 226
403 346 549 421 235 119 474 149 653 81 90 -34 90 -24 -4 -161 -124 -182 -246
-388 -352 -599 -113 -224 -147 -307 -226 -537 -127 -377 -168 -596 -172 -933
l-2 -135 30 0 c29 0 34 8 157 245 69 134 147 272 171 305 137 184 469 535 687
728 117 103 382 317 393 317 2 0 8 -33 12 -72 12 -122 17 -129 153 -197 184
-92 197 -107 238 -271 36 -148 60 -204 107 -252 74 -76 263 -159 443 -194 49
-9 92 -20 97 -24 4 -3 3 -38 -2 -76 -8 -52 -7 -72 2 -81 7 -7 59 -25 117 -40
122 -33 118 -25 74 -160 -61 -191 -160 -340 -273 -413 -27 -17 -52 -38 -55
-46 -9 -22 29 -103 66 -141 36 -37 85 -55 213 -79 122 -22 607 -31 827 -14
102 7 164 8 170 2 6 -6 1 -29 -13 -61 -35 -81 -26 -85 146 -61 77 11 151 20
166 20 l26 0 0 -132 c1 -109 6 -151 26 -231 46 -174 145 -342 229 -387 l45
-23 31 21 c16 12 70 79 119 150 182 263 376 416 636 503 101 34 109 34 297 4
199 -31 361 -15 548 55 98 37 119 41 165 36 42 -5 59 -3 92 15 63 34 158 116
326 279 84 84 168 160 184 171 39 24 93 24 175 -2 73 -23 96 -20 154 20 23 16
65 41 95 56 47 24 63 27 125 23 96 -5 168 -42 246 -125 65 -68 93 -78 149 -48
46 23 164 158 232 264 35 55 70 100 77 100 7 1 27 -6 44 -15 23 -12 45 -14 92
-9 189 20 273 80 362 257 48 96 111 208 137 242 14 19 16 19 88 -17 118 -58
246 -80 449 -74 91 2 182 10 204 16 39 13 86 51 86 71 0 6 -49 63 -108 128
-301 327 -426 512 -427 632 l0 55 140 78 c77 42 141 84 143 92 2 8 -37 54 -85
102 -58 57 -100 109 -121 149 -18 34 -32 65 -32 69 0 3 20 -14 46 -39 57 -58
108 -75 161 -55 85 33 103 117 58 275 -80 281 -152 433 -546 1146 -241 436
-334 708 -354 1038 -20 313 95 719 258 919 55 68 164 151 199 151 13 0 60 -40
127 -108 129 -130 254 -226 382 -291 111 -57 335 -132 569 -191 223 -57 212
-52 205 -97 -39 -229 -120 -457 -286 -802 -117 -242 -132 -312 -86 -401 71
-140 245 -93 553 151 394 312 732 801 898 1300 87 264 124 475 132 774 15 478
-59 876 -236 1275 -141 319 -416 690 -753 1018 l-127 122 16 98 c28 170 7 314
-81 557 -177 491 -707 1132 -1310 1585 -752 565 -1642 938 -2495 1044 -252 32
-605 43 -895 29z m440 -214 c254 -18 576 -63 790 -110 49 -10 94 -19 100 -18
5 0 -40 19 -102 42 -99 38 -163 69 -108 54 11 -3 58 -13 105 -22 132 -25 381
-92 530 -141 779 -260 1509 -724 2115 -1345 360 -369 586 -727 700 -1107 31
-104 49 -239 40 -298 l-6 -44 -42 29 c-96 66 -271 139 -372 157 -56 10 -106
52 -165 140 l-50 76 0 -45 c0 -65 -20 -200 -31 -211 -5 -6 -9 2 -9 21 0 33
-18 93 -29 93 -3 0 -8 -25 -9 -56 -2 -31 -13 -82 -24 -113 -55 -149 -130 -173
-259 -85 l-52 37 59 -72 c32 -40 58 -75 56 -79 -10 -24 -146 38 -225 101 -31
26 -57 44 -57 40 0 -5 23 -37 50 -73 26 -36 47 -66 46 -68 -6 -5 -187 78 -268
124 -97 55 -245 155 -340 231 -38 30 -68 50 -68 44 0 -5 32 -43 71 -85 39 -42
68 -76 65 -76 -13 0 -212 120 -341 205 -145 97 -312 226 -450 349 -67 60 -75
65 -51 31 71 -96 163 -200 268 -300 62 -60 100 -100 83 -90 -228 143 -514 347
-877 627 -448 345 -976 634 -1448 792 -117 39 -353 106 -357 102 -2 -2 74 -45
168 -96 247 -132 617 -356 606 -366 -2 -2 -29 7 -60 21 -147 64 -442 147 -662
185 -410 70 -946 78 -1355 20 -152 -21 -328 -55 -337 -64 -4 -3 70 -6 164 -6
186 0 400 -18 588 -50 66 -12 137 -24 158 -27 55 -8 45 -19 -25 -28 -35 -5
-54 -10 -43 -12 110 -22 421 -106 558 -150 334 -107 582 -216 704 -308 67 -50
156 -143 186 -195 17 -29 13 -27 -52 23 -85 66 -174 117 -272 156 -118 46
-132 45 -33 -2 175 -85 292 -183 363 -306 21 -36 85 -158 141 -271 56 -113
120 -231 142 -264 181 -265 574 -438 998 -437 138 0 234 10 348 36 36 9 66 14
68 12 10 -9 -197 -79 -277 -93 -115 -20 -434 -14 -599 11 -108 17 -260 48
-295 61 -14 5 -17 4 -10 -4 23 -23 329 -105 500 -132 224 -37 537 -41 726 -10
42 7 82 11 88 9 15 -5 -53 -119 -108 -181 -24 -27 -41 -52 -37 -55 19 -20 264
77 373 148 35 23 66 39 70 36 9 -9 -202 -233 -251 -266 -67 -46 -159 -89 -253
-118 -84 -26 -98 -27 -303 -27 -194 -1 -230 2 -365 27 -273 51 -527 105 -760
161 -293 71 -353 79 -464 66 -157 -20 -215 -69 -191 -163 17 -65 53 -111 138
-179 174 -138 409 -278 670 -398 227 -104 673 -293 877 -370 35 -13 28 -22
-79 -93 -199 -133 -428 -234 -801 -353 -169 -54 -128 -49 140 16 223 54 186
54 415 4 300 -65 592 -144 855 -231 110 -36 204 -69 209 -73 4 -5 -37 -37 -92
-73 -55 -36 -125 -86 -156 -111 -31 -25 -75 -55 -96 -66 -46 -24 -53 -43 -12
-34 100 23 155 39 228 70 85 35 127 41 154 24 12 -8 -8 -32 -102 -121 -65 -61
-118 -115 -118 -121 0 -26 160 28 228 78 21 16 22 16 22 -6 0 -13 -7 -31 -16
-41 -14 -16 -14 -20 0 -41 14 -22 13 -26 -14 -68 -16 -25 -32 -58 -36 -75 l-7
-30 29 25 c16 13 45 38 64 55 l35 30 -36 -40 c-47 -53 -141 -286 -147 -367 -2
-32 -2 -58 2 -58 3 0 24 36 46 80 66 130 170 300 213 347 22 24 42 42 44 40 2
-2 -19 -51 -46 -108 -27 -57 -52 -119 -56 -138 -7 -33 -7 -34 24 -29 21 3 30
1 27 -6 -132 -319 -177 -524 -178 -811 0 -176 17 -314 57 -464 14 -52 24 -95
23 -97 -2 -1 -34 13 -72 31 -87 44 -166 104 -218 169 -50 63 -113 190 -129
262 -7 30 -15 54 -20 54 -4 0 -51 -63 -105 -139 -54 -77 -100 -138 -102 -136
-5 5 47 191 73 262 13 35 20 63 15 63 -5 0 -76 -52 -157 -117 -327 -257 -990
-733 -1059 -760 -9 -3 114 158 273 359 159 200 293 370 298 378 11 18 11 18
-205 -129 -523 -354 -791 -564 -1084 -851 -105 -103 -171 -161 -159 -140 157
267 251 411 478 735 221 317 268 386 263 390 -1 2 -34 -33 -73 -77 -262 -299
-593 -497 -1115 -668 -253 -83 -249 -83 -134 6 283 221 608 515 838 759 146
155 396 439 396 451 0 6 -32 -11 -500 -264 -162 -88 -297 -158 -300 -156 -2 3
191 200 430 439 239 239 432 435 427 435 -13 0 -402 -197 -555 -281 -250 -138
-526 -306 -787 -480 -235 -157 -368 -254 -865 -630 -182 -138 -422 -303 -535
-369 l-40 -23 51 54 c498 530 707 789 1035 1279 163 244 240 347 375 506 182
212 521 531 737 690 37 27 66 52 67 56 0 4 -33 -8 -74 -27 -641 -292 -1407
-455 -2142 -455 -417 0 -775 54 -1065 160 -100 37 -299 130 -299 140 0 4 66
10 148 14 415 19 615 38 912 87 406 67 896 197 1255 334 l120 46 -95 -6 c-623
-35 -889 -27 -1380 41 -102 14 -189 30 -194 35 -6 5 30 9 92 9 61 0 102 4 102
10 0 6 -13 10 -29 10 -97 0 -719 98 -991 156 -307 66 -660 160 -660 176 0 5 4
7 9 4 13 -8 430 13 578 29 302 34 611 93 878 170 191 55 264 85 332 135 117
89 136 171 58 246 -63 61 -133 80 -347 95 -207 14 -585 6 -778 -16 -264 -30
-524 -82 -697 -140 -42 -14 -78 -23 -81 -20 -7 7 256 132 383 183 55 22 150
56 210 76 191 62 1275 355 1395 377 169 31 171 36 15 44 -528 29 -1377 -166
-2073 -476 -455 -203 -919 -512 -1289 -861 -66 -62 -145 -136 -174 -164 -30
-27 -71 -70 -92 -95 -35 -40 -30 -27 46 121 203 398 590 976 913 1365 139 167
542 570 709 709 477 397 960 695 1430 883 241 97 335 124 510 147 l100 13
-100 8 c-129 10 -383 0 -505 -20 -431 -71 -912 -231 -1343 -446 -525 -263
-891 -517 -1301 -902 -99 -93 -123 -112 -103 -81 149 237 204 319 304 453 581
780 1293 1417 2103 1882 199 114 571 294 775 374 94 38 172 70 175 73 17 15
-343 -64 -554 -123 -324 -90 -851 -282 -1060 -387 -88 -44 -5 13 134 91 732
414 1513 702 2358 871 679 135 1202 172 1797 129z m586 -2442 l-25 -73 47 -66
c44 -61 252 -488 238 -488 -12 0 -76 43 -123 82 -60 50 -138 166 -163 243 -29
89 -28 230 4 313 34 91 54 81 22 -11z m408 -6 l99 -50 -26 -53 c-36 -75 -42
-192 -13 -268 23 -62 75 -121 135 -153 36 -19 57 -22 171 -22 121 0 134 -2
186 -27 31 -16 64 -37 73 -47 17 -19 16 -21 -24 -46 -195 -123 -447 -108 -614
37 -64 55 -140 173 -167 257 -42 135 -19 318 53 409 15 18 19 17 127 -37z
m279 -157 c27 -18 28 -54 4 -84 -20 -25 -63 -30 -87 -10 -21 18 -19 66 5 90
24 24 48 25 78 4z m2584 -418 c214 -95 473 -303 689 -555 l99 -116 -86 -11
c-62 -9 -106 -22 -159 -48 -64 -32 -91 -56 -230 -201 -186 -195 -231 -227
-468 -336 -362 -167 -520 -296 -625 -509 -45 -91 -47 -99 -50 -195 -3 -81 0
-111 17 -157 11 -32 19 -58 17 -58 -1 0 -203 109 -448 243 -755 413 -1104 556
-2050 843 -125 37 -226 70 -224 71 6 6 224 -19 341 -38 174 -29 264 -52 501
-124 208 -64 244 -73 214 -55 -77 45 -651 224 -1070 334 -307 80 -338 87 -442
93 l-108 6 0 -25 c0 -23 55 -70 151 -131 77 -48 617 -275 914 -384 1220 -449
1614 -607 1895 -756 183 -97 464 -263 605 -357 173 -116 199 -130 361 -200
174 -76 195 -96 280 -261 35 -70 93 -175 129 -234 36 -60 64 -109 62 -110 -1
-2 -57 10 -124 26 -271 62 -502 158 -654 270 -46 34 -149 128 -229 209 -211
213 -239 231 -469 307 -202 66 -902 236 -1276 309 -181 36 -370 73 -420 83
l-90 17 76 36 c100 46 184 104 270 186 l70 66 71 -17 c39 -10 73 -16 75 -14 4
5 -338 158 -457 205 -276 110 -706 306 -890 407 -124 67 -302 184 -382 248
-31 26 -75 74 -97 108 -39 58 -40 63 -25 80 9 10 36 26 60 35 76 29 284 5 569
-65 364 -90 529 -122 785 -151 307 -35 579 -24 743 31 90 30 232 100 307 152
76 52 165 98 234 121 124 42 183 48 476 50 281 2 286 2 365 29 144 48 257 141
325 268 16 31 30 67 30 80 1 34 36 109 68 142 70 75 178 95 274 53z m849 -775
c102 -68 283 -374 388 -656 243 -655 236 -1350 -19 -1935 -214 -492 -491 -854
-872 -1137 -82 -61 -208 -140 -208 -129 0 2 31 68 69 147 98 203 217 486 257
606 65 200 78 285 78 513 -1 194 -7 256 -28 262 -5 2 -22 -26 -37 -62 -31 -73
-45 -84 -54 -43 -15 69 -61 194 -95 263 -91 179 -149 226 -403 324 -363 140
-570 302 -677 527 -50 106 -39 216 37 362 81 154 258 281 617 441 102 47 210
99 237 117 28 18 117 95 198 172 172 164 249 221 322 241 89 24 139 20 190
-13z m-9423 -728 c-10 -2 -28 -2 -40 0 -13 2 -5 4 17 4 22 1 32 -1 23 -4z
m6825 -1050 c-13 -2 -33 -2 -45 0 -13 2 -3 4 22 4 25 0 35 -2 23 -4z m-95 -10
c-10 -2 -26 -2 -35 0 -10 3 -2 5 17 5 19 0 27 -2 18 -5z m138 -21 c-17 -16
-18 -16 -5 5 7 12 15 20 18 17 3 -2 -3 -12 -13 -22z m-199 12 c-3 -3 -12 -4
-19 -1 -8 3 -5 6 6 6 11 1 17 -2 13 -5z m-40 -10 c-3 -3 -12 -4 -19 -1 -8 3
-5 6 6 6 11 1 17 -2 13 -5z m-107 -33 c-8 -5 -26 -11 -40 -15 -21 -5 -20 -3 5
9 32 15 60 20 35 6z m304 -26 c-14 -19 -29 -35 -31 -35 -5 0 7 18 36 53 26 31
23 18 -5 -18z m156 32 c0 -1 -26 -27 -57 -57 -32 -30 -43 -39 -26 -20 18 19
31 39 30 43 -1 5 9 15 23 22 27 15 30 17 30 12z m-90 -52 c0 -2 -13 -11 -30
-20 -38 -19 -40 -11 -2 9 31 17 32 18 32 11z m300 -50 c-24 -25 -46 -45 -49
-45 -3 0 12 18 33 39 38 39 38 39 15 44 -18 3 -15 5 11 6 l34 1 -44 -45z m-40
28 c-8 -3 -27 -12 -42 -20 -16 -7 -28 -11 -28 -9 0 9 54 35 70 35 13 -1 13 -1
0 -6z m-280 -46 c0 -2 -10 -12 -22 -23 l-23 -19 19 23 c18 21 26 27 26 19z
m170 -11 c0 -2 -12 -11 -27 -20 l-28 -17 24 20 c23 21 31 25 31 17z m229 -29
c-27 -20 -60 -37 -55 -28 4 6 0 11 -11 12 -10 1 -4 5 12 9 32 8 61 12 54 7z
m-465 -42 c-14 -19 -29 -35 -31 -35 -5 0 7 18 36 53 26 31 23 18 -5 -18z m176
31 c0 -2 -8 -10 -17 -17 -16 -13 -17 -12 -4 4 13 16 21 21 21 13z m191 -14
c-7 -2 -18 1 -23 6 -8 8 -4 9 13 5 13 -4 18 -8 10 -11z m-231 -15 c0 -2 -15
-16 -32 -33 l-33 -29 29 33 c28 30 36 37 36 29z m225 -30 c-22 -18 -62 -52
-90 -77 -27 -25 -41 -34 -30 -21 22 27 146 131 154 131 4 -1 -12 -15 -34 -33z
m-295 -30 c0 -2 -19 -21 -42 -42 l-43 -40 40 43 c36 39 45 47 45 39z m160
-100 c0 -2 -10 -12 -22 -23 l-23 -19 19 23 c18 21 26 27 26 19z m-76 -102
c-20 -30 -39 -55 -41 -55 -5 0 3 14 39 68 16 23 31 42 34 42 2 0 -12 -25 -32
-55z m-54 -85 c-6 -11 -13 -20 -16 -20 -2 0 0 9 6 20 6 11 13 20 16 20 2 0 0
-9 -6 -20z m-3373 -1242 c-154 -191 -362 -559 -507 -897 -72 -170 -151 -373
-146 -379 2 -2 171 78 375 177 204 100 373 181 376 181 15 0 -106 -163 -164
-221 -115 -114 -200 -164 -464 -269 -92 -37 -205 -90 -250 -116 -107 -64 -246
-202 -312 -309 -58 -95 -54 -89 -59 -84 -8 8 34 231 65 349 126 475 374 904
729 1261 121 122 382 360 389 354 2 -2 -12 -23 -32 -47z m-5654 -103 c-3 -9
-8 -14 -10 -11 -3 3 -2 9 2 15 9 16 15 13 8 -4z m10071 -1651 c3 -8 2 -12 -4
-9 -6 3 -10 10 -10 16 0 14 7 11 14 -7z m-6927 -946 c-3 -8 -6 -5 -6 6 -1 11
2 17 5 13 3 -3 4 -12 1 -19z m961 -1345 c-10 -2 -26 -2 -35 0 -10 3 -2 5 17 5
19 0 27 -2 18 -5z m130 0 c-10 -2 -28 -2 -40 0 -13 2 -5 4 17 4 22 1 32 -1 23
-4z"/>
<path d="M10863 8956 c-91 -30 -217 -135 -246 -206 -49 -118 -10 -234 57 -171
43 40 88 51 219 51 181 0 244 28 314 138 l36 56 -44 39 c-96 86 -238 125 -336
93z"/>
</g>
</svg>
